<svg width="28" height="28" viewBox="0 0 28 28" fill="none" xmlns="http://www.w3.org/2000/svg">
<rect x="0.25" y="0.25" width="27.5" height="27.5" rx="7.75" stroke="#4BBD72" stroke-width="0.5"/>
<g clip-path="url(#clip0_3_271)">
<path d="M18.466 9.5C17.643 6.237 15.952 4 14 4C11.239 4 9 8.477 9 14C9 19.523 11.239 24 14 24C14.342 24 14.677 23.931 15 23.8" stroke="#106B42" stroke-width="2" stroke-linecap="round" stroke-linejoin="round"/>
<path d="M17.194 15.707L21.008 17.567L19.148 21.381" stroke="#106B42" stroke-width="2" stroke-linecap="round" stroke-linejoin="round"/>
<path d="M21 17.57C19.196 18.455 16.726 19 14 19C8.477 19 4 16.761 4 14C4 11.239 8.477 9 14 9C18.838 9 22.873 10.718 23.8 13" stroke="#106B42" stroke-width="2" stroke-linecap="round" stroke-linejoin="round"/>
</g>
<defs>
<clipPath id="clip0_3_271">
<rect width="24" height="24" fill="white" transform="translate(2 2)"/>
</clipPath>
</defs>
</svg>
