<svg width="201" height="32" viewBox="0 0 201 32" fill="none" xmlns="http://www.w3.org/2000/svg">
<rect x="1.92392" y="0.25" width="27.5" height="27.5" rx="7.75" stroke="#4BBD72" stroke-width="0.5"/>
<g clip-path="url(#clip0_3_269)">
<path d="M20.1399 9.5C19.3169 6.237 17.6259 4 15.6739 4C12.9129 4 10.6739 8.477 10.6739 14C10.6739 19.523 12.9129 24 15.6739 24C16.0159 24 16.3509 23.931 16.6739 23.8" stroke="#106B42" stroke-width="2" stroke-linecap="round" stroke-linejoin="round"/>
<path d="M18.8679 15.707L22.6819 17.567L20.8219 21.381" stroke="#106B42" stroke-width="2" stroke-linecap="round" stroke-linejoin="round"/>
<path d="M22.6739 17.57C20.8699 18.455 18.3999 19 15.6739 19C10.1509 19 5.67392 16.761 5.67392 14C5.67392 11.239 10.1509 9 15.6739 9C20.5119 9 24.5469 10.718 25.4739 13" stroke="#106B42" stroke-width="2" stroke-linecap="round" stroke-linejoin="round"/>
</g>
<path d="M48.8125 25H39.0625V20.75H48.8125C49.1042 20.75 49.3542 20.6458 49.5625 20.4375C49.7708 20.2292 49.875 19.9792 49.875 19.6875C49.875 19.3854 49.7708 19.1875 49.5625 19.0938C49.3542 19 49.1042 18.9531 48.8125 18.9531H44.375C43.6354 18.9531 42.9427 18.8125 42.2969 18.5312C41.651 18.25 41.0885 17.8698 40.6094 17.3906C40.1302 16.901 39.75 16.3333 39.4688 15.6875C39.1979 15.0417 39.0625 14.349 39.0625 13.6094C39.0625 12.8698 39.1979 12.1771 39.4688 11.5312C39.75 10.8854 40.1302 10.3229 40.6094 9.84375C41.0885 9.36458 41.651 8.98958 42.2969 8.71875C42.9427 8.4375 43.6354 8.29688 44.375 8.29688H53.0156V12.5469H44.375C44.0833 12.5469 43.8333 12.651 43.625 12.8594C43.4167 13.0677 43.3125 13.3177 43.3125 13.6094C43.3125 13.9115 43.4167 14.1719 43.625 14.3906C43.8333 14.599 44.0833 14.7031 44.375 14.7031H48.8125C49.5417 14.7031 50.2292 14.8281 50.875 15.0781C51.5208 15.3177 52.0833 15.6562 52.5625 16.0938C53.0417 16.5312 53.4219 17.0573 53.7031 17.6719C53.9844 18.2865 54.125 18.9583 54.125 19.6875C54.125 20.4271 53.9844 21.1198 53.7031 21.7656C53.4219 22.401 53.0417 22.9635 52.5625 23.4531C52.0833 23.9323 51.5208 24.3125 50.875 24.5938C50.2292 24.8646 49.5417 25 48.8125 25ZM60.7031 31.375H56.4062V8.26562H57.4375L59.1406 10.2812C59.526 9.91667 59.9479 9.57292 60.4062 9.25C60.8646 8.92708 61.3385 8.65104 61.8281 8.42188C62.3281 8.18229 62.8438 7.99479 63.375 7.85938C63.9062 7.72396 64.4427 7.65625 64.9844 7.65625C66.1615 7.65625 67.2656 7.86979 68.2969 8.29688C69.3385 8.71354 70.2448 9.30729 71.0156 10.0781C71.7969 10.849 72.4115 11.7812 72.8594 12.875C73.3073 13.9583 73.5312 15.1615 73.5312 16.4844C73.5312 17.8594 73.3073 19.099 72.8594 20.2031C72.4115 21.2969 71.7969 22.2292 71.0156 23C70.2448 23.7604 69.3385 24.3438 68.2969 24.75C67.2656 25.1562 66.1615 25.3594 64.9844 25.3594C64.6094 25.3594 64.2344 25.3177 63.8594 25.2344C63.4948 25.151 63.1302 25.0417 62.7656 24.9062C62.4115 24.7604 62.0573 24.599 61.7031 24.4219C61.3594 24.2448 61.026 24.0625 60.7031 23.875V31.375ZM69.25 16.4844C69.25 15.776 69.1354 15.1406 68.9062 14.5781C68.6875 14.0156 68.3854 13.5417 68 13.1562C67.6146 12.7604 67.1615 12.4583 66.6406 12.25C66.1198 12.0417 65.5677 11.9375 64.9844 11.9375C64.401 11.9375 63.849 12.0417 63.3281 12.25C62.8177 12.4583 62.3698 12.7604 61.9844 13.1562C61.599 13.5417 61.2917 14.0156 61.0625 14.5781C60.8438 15.1406 60.7344 15.776 60.7344 16.4844C60.7344 17.1615 60.8438 17.7812 61.0625 18.3438C61.2917 18.9062 61.599 19.3854 61.9844 19.7812C62.3698 20.1771 62.8177 20.4844 63.3281 20.7031C63.849 20.9219 64.401 21.0312 64.9844 21.0312C65.5677 21.0312 66.1198 20.9219 66.6406 20.7031C67.1615 20.4844 67.6146 20.1771 68 19.7812C68.3854 19.3854 68.6875 18.9062 68.9062 18.3438C69.1354 17.7812 69.25 17.1615 69.25 16.4844ZM80.1719 25H75.9062V8.26562H76.9375L78.3438 10.25C79.0312 9.625 79.8125 9.14583 80.6875 8.8125C81.5625 8.46875 82.4688 8.29688 83.4062 8.29688H87.1719V12.5469H83.4062C82.9583 12.5469 82.5365 12.6302 82.1406 12.7969C81.7448 12.9635 81.401 13.1927 81.1094 13.4844C80.8177 13.776 80.5885 14.1198 80.4219 14.5156C80.2552 14.9115 80.1719 15.3333 80.1719 15.7812V25ZM94.1875 3.71875C94.1875 4.11458 94.1094 4.48438 93.9531 4.82812C93.8073 5.17188 93.6042 5.47396 93.3438 5.73438C93.0833 5.98438 92.776 6.1875 92.4219 6.34375C92.0781 6.48958 91.7083 6.5625 91.3125 6.5625C90.9167 6.5625 90.5417 6.48958 90.1875 6.34375C89.8438 6.1875 89.5417 5.98438 89.2812 5.73438C89.0312 5.47396 88.8281 5.17188 88.6719 4.82812C88.526 4.48438 88.4531 4.11458 88.4531 3.71875C88.4531 3.33333 88.526 2.96875 88.6719 2.625C88.8281 2.27083 89.0312 1.96875 89.2812 1.71875C89.5417 1.45833 89.8438 1.25521 90.1875 1.10938C90.5417 0.953125 90.9167 0.875 91.3125 0.875C91.7083 0.875 92.0781 0.953125 92.4219 1.10938C92.776 1.25521 93.0833 1.45833 93.3438 1.71875C93.6042 1.96875 93.8073 2.27083 93.9531 2.625C94.1094 2.96875 94.1875 3.33333 94.1875 3.71875ZM93.4531 25H89.1562V8.26562H93.4531V25ZM100.984 25H96.7188V8.26562H97.75L99.1562 9.89062C99.8438 9.26562 100.62 8.78646 101.484 8.45312C102.359 8.10938 103.271 7.9375 104.219 7.9375C105.24 7.9375 106.203 8.13542 107.109 8.53125C108.016 8.91667 108.807 9.45312 109.484 10.1406C110.161 10.8177 110.693 11.6146 111.078 12.5312C111.474 13.4375 111.672 14.4062 111.672 15.4375V25H107.406V15.4375C107.406 15 107.323 14.5885 107.156 14.2031C106.99 13.8073 106.76 13.4635 106.469 13.1719C106.177 12.8802 105.839 12.651 105.453 12.4844C105.068 12.3177 104.656 12.2344 104.219 12.2344C103.771 12.2344 103.349 12.3177 102.953 12.4844C102.557 12.651 102.214 12.8802 101.922 13.1719C101.63 13.4635 101.401 13.8073 101.234 14.2031C101.068 14.5885 100.984 15 100.984 15.4375V25ZM122.891 25C121.859 25 120.891 24.8073 119.984 24.4219C119.078 24.026 118.281 23.4896 117.594 22.8125C116.917 22.125 116.38 21.3281 115.984 20.4219C115.599 19.5156 115.406 18.5469 115.406 17.5156V12.5469H113.328V8.29688H115.406V1.60938H119.656V8.29688H126.125V12.5469H119.656V17.5156C119.656 17.9635 119.74 18.3854 119.906 18.7812C120.073 19.1667 120.302 19.5052 120.594 19.7969C120.885 20.0885 121.229 20.3229 121.625 20.5C122.021 20.6667 122.443 20.75 122.891 20.75H126.125V25H122.891ZM142.25 25L135.875 8.26562H140.734L144.391 18.7031L148.031 8.26562H152.906L146.531 25H142.25ZM159.562 3.71875C159.562 4.11458 159.484 4.48438 159.328 4.82812C159.182 5.17188 158.979 5.47396 158.719 5.73438C158.458 5.98438 158.151 6.1875 157.797 6.34375C157.453 6.48958 157.083 6.5625 156.688 6.5625C156.292 6.5625 155.917 6.48958 155.562 6.34375C155.219 6.1875 154.917 5.98438 154.656 5.73438C154.406 5.47396 154.203 5.17188 154.047 4.82812C153.901 4.48438 153.828 4.11458 153.828 3.71875C153.828 3.33333 153.901 2.96875 154.047 2.625C154.203 2.27083 154.406 1.96875 154.656 1.71875C154.917 1.45833 155.219 1.25521 155.562 1.10938C155.917 0.953125 156.292 0.875 156.688 0.875C157.083 0.875 157.453 0.953125 157.797 1.10938C158.151 1.25521 158.458 1.45833 158.719 1.71875C158.979 1.96875 159.182 2.27083 159.328 2.625C159.484 2.96875 159.562 3.33333 159.562 3.71875ZM158.828 25H154.531V8.26562H158.828V25ZM168.75 20.9062C168.917 20.9583 169.083 20.9948 169.25 21.0156C169.417 21.026 169.583 21.0312 169.75 21.0312C170.167 21.0312 170.568 20.974 170.953 20.8594C171.339 20.7448 171.698 20.5833 172.031 20.375C172.375 20.1562 172.677 19.8958 172.938 19.5938C173.208 19.2812 173.427 18.9375 173.594 18.5625L176.719 21.7031C176.323 22.2656 175.865 22.7708 175.344 23.2188C174.833 23.6667 174.276 24.0469 173.672 24.3594C173.078 24.6719 172.448 24.9062 171.781 25.0625C171.125 25.2292 170.448 25.3125 169.75 25.3125C168.573 25.3125 167.464 25.0938 166.422 24.6562C165.391 24.2188 164.484 23.6094 163.703 22.8281C162.932 22.0469 162.323 21.1198 161.875 20.0469C161.427 18.9635 161.203 17.776 161.203 16.4844C161.203 15.1615 161.427 13.9531 161.875 12.8594C162.323 11.7656 162.932 10.8333 163.703 10.0625C164.484 9.29167 165.391 8.69271 166.422 8.26562C167.464 7.83854 168.573 7.625 169.75 7.625C170.448 7.625 171.13 7.70833 171.797 7.875C172.464 8.04167 173.094 8.28125 173.688 8.59375C174.292 8.90625 174.854 9.29167 175.375 9.75C175.896 10.1979 176.354 10.7031 176.75 11.2656L168.75 20.9062ZM170.938 12.1094C170.74 12.0365 170.542 11.9896 170.344 11.9688C170.156 11.9479 169.958 11.9375 169.75 11.9375C169.167 11.9375 168.615 12.0469 168.094 12.2656C167.583 12.474 167.135 12.776 166.75 13.1719C166.375 13.5677 166.078 14.0469 165.859 14.6094C165.641 15.1615 165.531 15.7865 165.531 16.4844C165.531 16.6406 165.536 16.8177 165.547 17.0156C165.568 17.2135 165.594 17.4167 165.625 17.625C165.667 17.8229 165.714 18.0156 165.766 18.2031C165.818 18.3906 165.885 18.5573 165.969 18.7031L170.938 12.1094ZM200.031 18.9531C200.031 19.8281 199.865 20.6562 199.531 21.4375C199.198 22.2083 198.74 22.8802 198.156 23.4531C197.583 24.026 196.906 24.4792 196.125 24.8125C195.354 25.1458 194.526 25.3125 193.641 25.3125C192.849 25.3125 192.089 25.1771 191.359 24.9062C190.63 24.625 189.969 24.2188 189.375 23.6875C188.792 24.2188 188.135 24.625 187.406 24.9062C186.688 25.1771 185.927 25.3125 185.125 25.3125C184.24 25.3125 183.411 25.1458 182.641 24.8125C181.87 24.4792 181.193 24.026 180.609 23.4531C180.036 22.8802 179.583 22.2083 179.25 21.4375C178.917 20.6562 178.75 19.8281 178.75 18.9531V8.29688H183.016V18.9531C183.016 19.2448 183.068 19.5208 183.172 19.7812C183.286 20.0312 183.438 20.2552 183.625 20.4531C183.823 20.6406 184.047 20.7917 184.297 20.9062C184.557 21.0104 184.833 21.0625 185.125 21.0625C185.417 21.0625 185.693 21.0104 185.953 20.9062C186.214 20.7917 186.443 20.6406 186.641 20.4531C186.839 20.2552 186.99 20.0312 187.094 19.7812C187.208 19.5208 187.266 19.2448 187.266 18.9531V8.29688H191.516V18.9531C191.516 19.2448 191.573 19.5208 191.688 19.7812C191.802 20.0312 191.953 20.2552 192.141 20.4531C192.339 20.6406 192.562 20.7917 192.812 20.9062C193.073 21.0104 193.349 21.0625 193.641 21.0625C193.932 21.0625 194.208 21.0104 194.469 20.9062C194.729 20.7917 194.953 20.6406 195.141 20.4531C195.339 20.2552 195.495 20.0312 195.609 19.7812C195.724 19.5208 195.781 19.2448 195.781 18.9531V8.29688H200.031V18.9531Z" fill="#4BBD72"/>
<defs>
<clipPath id="clip0_3_269">
<rect width="24" height="24" fill="white" transform="translate(3.67392 2)"/>
</clipPath>
</defs>
</svg>
